<svg width="141" height="97" fill="none" xmlns="http://www.w3.org/2000/svg"><path fill-rule="evenodd" clip-rule="evenodd" d="M14.04 81.928l-1.434-3.527h-.021l-1.455 3.527h2.91zm-1.868-4.874h.945l3.289 7.686H15.19l-.77-1.9h-3.66l-.759 1.9H8.785l3.387-7.686zm6.135 0v4.712c0 .239.032.486.097.743.066.258.174.495.326.712.152.216.351.394.597.532.246.137.55.206.912.206s.665-.07.912-.206c.246-.138.445-.316.597-.532.152-.217.26-.454.325-.712a2.98 2.98 0 00.099-.743v-4.712h1.041v4.874c0 .45-.076.857-.228 1.222a2.922 2.922 0 01-.63.95 2.768 2.768 0 01-.943.619 3.125 3.125 0 01-1.173.217c-.42 0-.81-.072-1.172-.217a2.775 2.775 0 01-.945-.618 2.919 2.919 0 01-.63-.95 3.154 3.154 0 01-.227-1.223v-4.874h1.042zm6.969 6.08c.188.282.428.49.722.624.293.134.595.201.906.201.174 0 .351-.027.532-.08.181-.056.346-.138.494-.246.148-.108.27-.243.363-.401.095-.16.142-.344.142-.554 0-.297-.094-.523-.282-.679a2.461 2.461 0 00-.7-.39 13.52 13.52 0 00-.912-.304 3.732 3.732 0 01-.913-.407 2.236 2.236 0 01-.699-.7c-.188-.293-.283-.69-.283-1.19 0-.223.05-.462.147-.716.098-.253.252-.485.461-.695.21-.21.48-.385.81-.526.329-.141.724-.212 1.188-.212.42 0 .821.059 1.205.174.383.116.72.35 1.01.706l-.848.77a1.397 1.397 0 00-.554-.488 1.74 1.74 0 00-.813-.185c-.29 0-.53.038-.722.115a1.293 1.293 0 00-.461.292 1.04 1.04 0 00-.245.386c-.047.137-.07.264-.07.38 0 .326.094.576.282.749.188.174.42.314.7.424.278.108.582.206.912.292.33.087.633.208.912.364a2.1 2.1 0 01.7.63c.188.264.282.628.282 1.09 0 .37-.07.703-.211 1a2.216 2.216 0 01-.57.75 2.515 2.515 0 01-.847.465 3.28 3.28 0 01-1.042.163 3.8 3.8 0 01-1.4-.26 2.312 2.312 0 01-1.054-.804l.858-.738zm7.414-5.102h-2.475v-.978h5.992v.978h-2.475v6.708H32.69v-6.708zm5.666 2.41h1.368c.202 0 .403-.017.602-.05.2-.031.377-.091.532-.178a.99.99 0 00.375-.375c.094-.163.141-.375.141-.635s-.047-.472-.14-.635a.99.99 0 00-.376-.374 1.62 1.62 0 00-.532-.18c-.199-.033-.4-.05-.602-.05h-1.368v2.477zm-1.042-3.388h2.703c.492 0 .897.068 1.216.202.318.134.57.303.754.51.185.206.314.438.386.695.072.257.109.504.109.743a1.991 1.991 0 01-.505 1.33 2.129 2.129 0 01-1.384.7l2.181 3.506h-1.302l-1.954-3.386h-1.162v3.386h-1.042v-7.686zm10.911 4.874l-1.434-3.527h-.02l-1.456 3.527h2.91zm-1.868-4.874h.945l3.289 7.686h-1.216l-.77-1.9h-3.66l-.759 1.9H42.97l3.387-7.686zm5.233 0h1.042v6.71h3.529v.976h-4.57v-7.686zm5.636 7.686h1.04v-7.686h-1.04v7.686zm7.294-2.812l-1.433-3.527h-.021l-1.455 3.527h2.91zm-1.866-4.874h.943l3.29 7.686h-1.216l-.771-1.9h-3.658l-.76 1.9h-1.216l3.388-7.686zm5.232 0h1.368l4.233 6.319h.023v-6.319h1.041v7.686h-1.324l-4.277-6.317h-.022v6.317h-1.042v-7.686zm11.658 0h1.368l4.234 6.319h.022v-6.319h1.042v7.686h-1.324l-4.277-6.317h-.023v6.317h-1.042v-7.686zm8.642 0h4.96v.978h-3.918v2.29h3.647v.978h-3.647v2.464h4.114v.976h-5.156v-7.686zm8.239.978h-2.476v-.978h5.993v.978h-2.476v6.708h-1.041v-6.708zm3.647-.978h1.087l1.698 6.146h.021l1.808-6.146h1.195l1.807 6.146h.022l1.699-6.146h1.086l-2.237 7.686h-1.107l-1.857-6.274h-.021l-1.846 6.274h-1.107l-2.248-7.686zm14.95 6.906a2.81 2.81 0 002.106-.901c.253-.276.448-.6.585-.973.138-.371.208-.769.208-1.188 0-.42-.07-.816-.208-1.188a2.81 2.81 0 00-1.497-1.63 2.828 2.828 0 00-1.194-.244c-.442 0-.84.082-1.195.244a2.817 2.817 0 00-1.498 1.63 3.416 3.416 0 00-.206 1.188c0 .42.069.817.206 1.188.138.373.333.697.587.972.253.274.557.494.911.656.355.164.753.245 1.195.245zm0 .976a4.133 4.133 0 01-1.618-.31 3.77 3.77 0 01-1.265-.852 3.939 3.939 0 01-.824-1.28 4.222 4.222 0 01-.299-1.596c0-.572.1-1.104.299-1.596.199-.492.473-.919.824-1.28a3.744 3.744 0 011.265-.853 4.144 4.144 0 011.618-.31c.587 0 1.124.104 1.617.31.493.205.914.49 1.265.852.351.362.626.789.825 1.28.199.493.299 1.025.299 1.597 0 .571-.1 1.103-.299 1.596a3.941 3.941 0 01-.825 1.28 3.76 3.76 0 01-1.265.852c-.493.207-1.03.31-1.617.31zm6.543-4.494h1.369c.203 0 .403-.017.602-.05.199-.031.376-.091.532-.178a.982.982 0 00.375-.375c.093-.163.14-.375.14-.635s-.047-.472-.14-.635a.982.982 0 00-.375-.374 1.624 1.624 0 00-.532-.18 3.668 3.668 0 00-.602-.05h-1.369v2.477zm-1.041-3.388h2.702c.492 0 .898.068 1.217.202.318.134.569.303.754.51.185.206.313.438.385.695.073.257.108.504.108.743a1.981 1.981 0 01-.504 1.33 2.125 2.125 0 01-1.384.7l2.182 3.506h-1.303l-1.953-3.386h-1.163v3.386h-1.041v-7.686zm6.634 0h1.041v3.322h.088l3.398-3.322h1.455l-3.713 3.55 3.963 4.136h-1.521l-3.582-3.842h-.088v3.842h-1.041v-7.686zM36.154 92.96c0 .477.076.922.228 1.335.152.413.369.771.65 1.075.283.304.625.543 1.027.716.4.174.852.26 1.351.26.5 0 .95-.086 1.352-.26a3.007 3.007 0 001.026-.716c.282-.304.5-.662.651-1.075a3.83 3.83 0 00.228-1.335c0-.478-.076-.923-.228-1.336a3.165 3.165 0 00-.651-1.074 3.01 3.01 0 00-1.026-.716 3.362 3.362 0 00-1.352-.262c-.5 0-.95.087-1.351.262a3.004 3.004 0 00-1.026.716 3.16 3.16 0 00-.651 1.074 3.832 3.832 0 00-.228 1.336zm-.718 0c0-.587.098-1.126.294-1.617a3.84 3.84 0 01.814-1.276 3.714 3.714 0 011.254-.842 4.199 4.199 0 011.612-.304c.586 0 1.124.103 1.612.304a3.72 3.72 0 011.254.842c.348.358.619.783.814 1.276.195.491.293 1.03.293 1.617a4.4 4.4 0 01-.293 1.623 3.85 3.85 0 01-.814 1.28 3.637 3.637 0 01-1.254.837 4.233 4.233 0 01-1.612.298 4.231 4.231 0 01-1.612-.298 3.631 3.631 0 01-1.254-.836 3.84 3.84 0 01-.814-1.28 4.389 4.389 0 01-.293-1.624zm9.554-3.844h.923l4.679 6.731h.022v-6.731h.717v7.686h-.923l-4.68-6.73h-.021v6.73h-.716v-7.686zm11.887 7.035h1.477c.506 0 .98-.062 1.422-.19.441-.126.824-.32 1.15-.58.326-.261.583-.591.77-.993.19-.402.284-.878.284-1.428 0-.55-.095-1.026-.283-1.428a2.728 2.728 0 00-.77-.992 3.238 3.238 0 00-1.151-.582 5.118 5.118 0 00-1.422-.19h-1.477v6.383zm-.716-7.035h2.377c.667 0 1.231.081 1.694.245a3.78 3.78 0 011.157.625c.307.253.548.533.726.84a4.139 4.139 0 01.548 1.651c.023.227.033.389.033.483 0 .094-.01.255-.033.483a4.167 4.167 0 01-.157.766 4.164 4.164 0 01-.39.884 3.14 3.14 0 01-.727.841 3.77 3.77 0 01-1.158.624c-.462.163-1.026.244-1.693.244h-2.377v-7.686zm8.141 7.686h.716v-7.686h-.716v7.686zm3.03-1.422c.189.326.432.569.733.728.3.16.642.239 1.025.239.24 0 .463-.035.673-.108a1.69 1.69 0 00.55-.305 1.397 1.397 0 00.504-1.097c0-.267-.056-.488-.168-.661a1.357 1.357 0 00-.451-.43 3.243 3.243 0 00-.635-.286 46.39 46.39 0 00-.728-.24 8.228 8.228 0 01-.727-.27 2.432 2.432 0 01-.635-.398 1.777 1.777 0 01-.45-.613c-.113-.245-.168-.55-.168-.912 0-.34.066-.642.2-.906s.315-.485.543-.662a2.39 2.39 0 01.787-.401 3.18 3.18 0 01.934-.137c.42 0 .808.076 1.166.222.358.149.668.397.929.745l-.62.445a1.812 1.812 0 00-.634-.57 1.836 1.836 0 00-.864-.19c-.232 0-.451.031-.661.092-.21.062-.393.152-.548.271a1.31 1.31 0 00-.516 1.091c0 .384.098.679.293.885.196.207.44.37.733.488.294.12.611.225.955.315.343.09.662.212.955.364.294.152.538.364.733.635.196.272.294.647.294 1.124a2.1 2.1 0 01-.196.923c-.13.268-.306.494-.527.679a2.282 2.282 0 01-.765.417c-.29.094-.59.141-.902.141a3.61 3.61 0 01-1.4-.266c-.426-.177-.793-.476-1.097-.895l.685-.456zm8.523-5.482l-1.792 4.213h3.528l-1.736-4.213zm-.337-.782h.739l3.234 7.686h-.803l-.837-2.04h-4.07l-.869 2.04h-.75l3.356-7.686zm5.794 7.035h1.64c.42 0 .757-.05 1.015-.152a1.55 1.55 0 00.592-.38 1.21 1.21 0 00.277-.483c.047-.17.07-.323.07-.46 0-.284-.054-.525-.163-.73a1.455 1.455 0 00-.423-.492 1.753 1.753 0 00-.591-.277 2.643 2.643 0 00-.668-.087h-1.749v3.061zm0-3.713H82.8c.369 0 .67-.045.901-.136.23-.09.412-.2.543-.33.13-.13.217-.27.26-.418a1.45 1.45 0 00.066-.407c0-.269-.045-.49-.136-.668a1.122 1.122 0 00-.364-.423 1.455 1.455 0 00-.532-.222 3.036 3.036 0 00-.64-.066h-1.586v2.67zm-.716-3.322h2.215c.29 0 .583.023.88.07a2.1 2.1 0 01.797.294c.235.149.427.355.575.619.149.265.222.613.222 1.048 0 .39-.115.73-.347 1.02-.23.29-.575.482-1.03.575v.022c.253.022.483.082.695.18a1.7 1.7 0 01.894.971c.084.224.125.47.125.738 0 .441-.085.802-.255 1.08-.17.28-.383.498-.64.657a2.504 2.504 0 01-.836.326c-.3.058-.58.086-.841.086h-2.454v-7.686zm6.839 7.686h.716v-7.686h-.716v7.686zm2.825-7.686h.716v7.035h3.582v.651h-4.299v-7.686zm5.427 7.686h.716v-7.686h-.716v7.686zm4.528-7.034h-2.627v-.652h5.97v.652h-2.626v7.034h-.717v-7.034zm6.232 3.723l-2.823-4.375h.858l2.323 3.648 2.377-3.648h.803l-2.822 4.375v3.311h-.716v-3.31z" fill="#373835"/><path fill-rule="evenodd" clip-rule="evenodd" d="M8.23 60.659L0 50.109 64.241 0l8.23 10.55L8.23 60.66z" fill="#612968"/><path fill-rule="evenodd" clip-rule="evenodd" d="M72.472 10.55L31.644 61.845l-8.23-10.55L64.242 0l8.23 10.55z" fill="#8D2556"/><path fill-rule="evenodd" clip-rule="evenodd" d="M31.643 61.845l-8.229-10.55L79.15 7.82l8.23 10.55-55.736 43.475z" fill="#9E272B"/><path fill-rule="evenodd" clip-rule="evenodd" d="M87.379 18.37L54.9 63.315l-8.23-10.55L79.15 7.82l8.23 10.55z" fill="#C02536"/><path fill-rule="evenodd" clip-rule="evenodd" d="M54.901 63.315l-8.23-10.55L92.96 16.66l8.229 10.55-46.288 36.105z" fill="#C92C2B"/><path fill-rule="evenodd" clip-rule="evenodd" d="M101.19 27.21L77.935 64.66l-8.304-10.5 23.33-37.5 8.229 10.55z" fill="#CB372F"/><path fill-rule="evenodd" clip-rule="evenodd" d="M77.86 64.712L69.63 54.16l37.175-28.996 8.23 10.55L77.861 64.71z" fill="#DA402C"/><path fill-rule="evenodd" clip-rule="evenodd" d="M115.034 35.715l-12.878 29.093L93.949 54.3l12.855-29.135 8.23 10.55z" fill="#D5702D"/><path fill-rule="evenodd" clip-rule="evenodd" d="M102.156 64.808L93.949 54.3l27.409-21.44 8.229 10.552-27.431 21.396z" fill="#E0732B"/><path fill-rule="evenodd" clip-rule="evenodd" d="M129.587 43.412l-4.649 22.7-8.23-10.551 4.65-22.7 8.229 10.55z" fill="#E19130"/><path fill-rule="evenodd" clip-rule="evenodd" d="M124.938 66.11l-8.23-10.55 16.062-12.528 8.23 10.55-16.062 12.529z" fill="#ECA32F"/><path fill-rule="evenodd" clip-rule="evenodd" d="M129.587 43.412L116.708 55.56l12.367-9.645.512-2.503z" fill="#CB7831"/><path fill-rule="evenodd" clip-rule="evenodd" d="M93.949 54.3l19.669-15.385 1.416-3.2L93.949 54.3z" fill="#CB662D"/><path fill-rule="evenodd" clip-rule="evenodd" d="M101.19 27.21L69.63 54.16l28.78-22.445 2.781-4.503z" fill="#BF2C2E"/><path fill-rule="evenodd" clip-rule="evenodd" d="M46.672 52.764l36.332-28.339 4.374-6.054-40.706 34.393z" fill="#AA2833"/><path fill-rule="evenodd" clip-rule="evenodd" d="M23.414 51.295l43.854-34.207 5.204-6.538-49.058 40.745z" fill="#7B1E26"/><path fill-rule="evenodd" clip-rule="evenodd" d="M106.805 25.165L83.773 60.099l11.615-9.059 11.417-25.875z" fill="#CB3534"/><path fill-rule="evenodd" clip-rule="evenodd" d="M92.96 16.66L60.817 58.7l11.435-8.753L92.96 16.66z" fill="#B72538"/><path fill-rule="evenodd" clip-rule="evenodd" d="M121.359 32.86l-13.14 27.219 9.002-7.02 4.138-20.198z" fill="#D2662C"/><path fill-rule="evenodd" clip-rule="evenodd" d="M64.241 0L13.55 56.51l15.067-11.753L64.24 0z" fill="#4F2555"/><path fill-rule="evenodd" clip-rule="evenodd" d="M79.149 7.82L37.213 57.5l13.834-10.79L79.149 7.82z" fill="#8E2329"/></svg>