<?xml version="1.0" encoding="utf-8"?>
<svg xmlns="http://www.w3.org/2000/svg" xmlns:xlink="http://www.w3.org/1999/xlink" style="margin: auto; background: rgba(255, 255, 255, 0); display: block; shape-rendering: auto;" width="200px" height="200px" viewBox="0 0 100 100" preserveAspectRatio="xMidYMid">
<g transform="rotate(0 50 50)">
  <rect x="47.5" y="23.5" rx="1.95" ry="1.95" width="5" height="13" fill="#c9c9c9">
    <animate attributeName="opacity" values="1;0" keyTimes="0;1" dur="0.6666666666666666s" begin="-0.6111111111111112s" repeatCount="indefinite"></animate>
  </rect>
</g><g transform="rotate(30 50 50)">
  <rect x="47.5" y="23.5" rx="1.95" ry="1.95" width="5" height="13" fill="#c9c9c9">
    <animate attributeName="opacity" values="1;0" keyTimes="0;1" dur="0.6666666666666666s" begin="-0.5555555555555556s" repeatCount="indefinite"></animate>
  </rect>
</g><g transform="rotate(60 50 50)">
  <rect x="47.5" y="23.5" rx="1.95" ry="1.95" width="5" height="13" fill="#c9c9c9">
    <animate attributeName="opacity" values="1;0" keyTimes="0;1" dur="0.6666666666666666s" begin="-0.5s" repeatCount="indefinite"></animate>
  </rect>
</g><g transform="rotate(90 50 50)">
  <rect x="47.5" y="23.5" rx="1.95" ry="1.95" width="5" height="13" fill="#c9c9c9">
    <animate attributeName="opacity" values="1;0" keyTimes="0;1" dur="0.6666666666666666s" begin="-0.4444444444444444s" repeatCount="indefinite"></animate>
  </rect>
</g><g transform="rotate(120 50 50)">
  <rect x="47.5" y="23.5" rx="1.95" ry="1.95" width="5" height="13" fill="#c9c9c9">
    <animate attributeName="opacity" values="1;0" keyTimes="0;1" dur="0.6666666666666666s" begin="-0.3888888888888889s" repeatCount="indefinite"></animate>
  </rect>
</g><g transform="rotate(150 50 50)">
  <rect x="47.5" y="23.5" rx="1.95" ry="1.95" width="5" height="13" fill="#c9c9c9">
    <animate attributeName="opacity" values="1;0" keyTimes="0;1" dur="0.6666666666666666s" begin="-0.3333333333333333s" repeatCount="indefinite"></animate>
  </rect>
</g><g transform="rotate(180 50 50)">
  <rect x="47.5" y="23.5" rx="1.95" ry="1.95" width="5" height="13" fill="#c9c9c9">
    <animate attributeName="opacity" values="1;0" keyTimes="0;1" dur="0.6666666666666666s" begin="-0.2777777777777778s" repeatCount="indefinite"></animate>
  </rect>
</g><g transform="rotate(210 50 50)">
  <rect x="47.5" y="23.5" rx="1.95" ry="1.95" width="5" height="13" fill="#c9c9c9">
    <animate attributeName="opacity" values="1;0" keyTimes="0;1" dur="0.6666666666666666s" begin="-0.2222222222222222s" repeatCount="indefinite"></animate>
  </rect>
</g><g transform="rotate(240 50 50)">
  <rect x="47.5" y="23.5" rx="1.95" ry="1.95" width="5" height="13" fill="#c9c9c9">
    <animate attributeName="opacity" values="1;0" keyTimes="0;1" dur="0.6666666666666666s" begin="-0.16666666666666666s" repeatCount="indefinite"></animate>
  </rect>
</g><g transform="rotate(270 50 50)">
  <rect x="47.5" y="23.5" rx="1.95" ry="1.95" width="5" height="13" fill="#c9c9c9">
    <animate attributeName="opacity" values="1;0" keyTimes="0;1" dur="0.6666666666666666s" begin="-0.1111111111111111s" repeatCount="indefinite"></animate>
  </rect>
</g><g transform="rotate(300 50 50)">
  <rect x="47.5" y="23.5" rx="1.95" ry="1.95" width="5" height="13" fill="#c9c9c9">
    <animate attributeName="opacity" values="1;0" keyTimes="0;1" dur="0.6666666666666666s" begin="-0.05555555555555555s" repeatCount="indefinite"></animate>
  </rect>
</g><g transform="rotate(330 50 50)">
  <rect x="47.5" y="23.5" rx="1.95" ry="1.95" width="5" height="13" fill="#c9c9c9">
    <animate attributeName="opacity" values="1;0" keyTimes="0;1" dur="0.6666666666666666s" begin="0s" repeatCount="indefinite"></animate>
  </rect>
</g>
<!-- [ldio] generated by https://loading.io/ --></svg>