<?xml version="1.0" encoding="utf-8"?>
<svg xmlns="http://www.w3.org/2000/svg" xmlns:xlink="http://www.w3.org/1999/xlink" style="margin: auto; background: rgba(255, 255, 255, 0); display: block; shape-rendering: auto;" width="100px" height="100px" viewBox="0 0 100 100" preserveAspectRatio="xMidYMid">
<g transform="rotate(0 50 50)">
  <rect x="49" y="33.5" rx="0.72" ry="0.72" width="2" height="9" fill="#616267">
    <animate attributeName="opacity" values="1;0" keyTimes="0;1" dur="0.5076142131979695s" begin="-0.44416243654822335s" repeatCount="indefinite"></animate>
  </rect>
</g><g transform="rotate(45 50 50)">
  <rect x="49" y="33.5" rx="0.72" ry="0.72" width="2" height="9" fill="#616267">
    <animate attributeName="opacity" values="1;0" keyTimes="0;1" dur="0.5076142131979695s" begin="-0.3807106598984772s" repeatCount="indefinite"></animate>
  </rect>
</g><g transform="rotate(90 50 50)">
  <rect x="49" y="33.5" rx="0.72" ry="0.72" width="2" height="9" fill="#616267">
    <animate attributeName="opacity" values="1;0" keyTimes="0;1" dur="0.5076142131979695s" begin="-0.31725888324873097s" repeatCount="indefinite"></animate>
  </rect>
</g><g transform="rotate(135 50 50)">
  <rect x="49" y="33.5" rx="0.72" ry="0.72" width="2" height="9" fill="#616267">
    <animate attributeName="opacity" values="1;0" keyTimes="0;1" dur="0.5076142131979695s" begin="-0.25380710659898476s" repeatCount="indefinite"></animate>
  </rect>
</g><g transform="rotate(180 50 50)">
  <rect x="49" y="33.5" rx="0.72" ry="0.72" width="2" height="9" fill="#616267">
    <animate attributeName="opacity" values="1;0" keyTimes="0;1" dur="0.5076142131979695s" begin="-0.1903553299492386s" repeatCount="indefinite"></animate>
  </rect>
</g><g transform="rotate(225 50 50)">
  <rect x="49" y="33.5" rx="0.72" ry="0.72" width="2" height="9" fill="#616267">
    <animate attributeName="opacity" values="1;0" keyTimes="0;1" dur="0.5076142131979695s" begin="-0.12690355329949238s" repeatCount="indefinite"></animate>
  </rect>
</g><g transform="rotate(270 50 50)">
  <rect x="49" y="33.5" rx="0.72" ry="0.72" width="2" height="9" fill="#616267">
    <animate attributeName="opacity" values="1;0" keyTimes="0;1" dur="0.5076142131979695s" begin="-0.06345177664974619s" repeatCount="indefinite"></animate>
  </rect>
</g><g transform="rotate(315 50 50)">
  <rect x="49" y="33.5" rx="0.72" ry="0.72" width="2" height="9" fill="#616267">
    <animate attributeName="opacity" values="1;0" keyTimes="0;1" dur="0.5076142131979695s" begin="0s" repeatCount="indefinite"></animate>
  </rect>
</g>
<!-- [ldio] generated by https://loading.io/ --></svg>