<?xml version="1.0" encoding="utf-8"?>
<!-- Svg Vector Icons : http://www.onlinewebfonts.com/icon -->
<!DOCTYPE svg PUBLIC "-//W3C//DTD SVG 1.1//EN" "http://www.w3.org/Graphics/SVG/1.1/DTD/svg11.dtd">
<svg version="1.1" xmlns="http://www.w3.org/2000/svg" xmlns:xlink="http://www.w3.org/1999/xlink" x="0px" y="0px" viewBox="0 0 256 256" enable-background="new 0 0 256 256" xml:space="preserve">
<metadata> Svg Vector Icons : http://www.onlinewebfonts.com/icon </metadata>
<g><g><g><path fill="#000000" d="M119.4,10.3c-30.7,4.2-54.6,27.4-59.5,57.8c-0.6,3.2-0.7,9.2-0.7,27.3v23.2l-1.5,0.8c-3.1,1.6-5.4,3.9-6.9,7l-1.5,3.1v48.2v48.2l1.2,3.3c2.3,6.4,6.6,11.3,12.2,14c5.9,2.9,2.8,2.8,65.3,2.8c62.7,0,59.3,0.1,65.5-2.9c6.4-3.1,11.9-10.8,13-18.1c0.3-2.1,0.5-19.1,0.4-49.4l-0.1-46.1l-1.2-2.6c-1.4-3-4.2-6-6.8-7.3l-1.8-1l-0.2-25c-0.2-27.6-0.1-27-3.4-36.8c-7.7-23.3-27.3-40.6-51.6-45.7C136.2,10.1,124.5,9.6,119.4,10.3z M139.5,20.9c20.7,4.2,37.8,19.4,44.4,39.2c2.7,8.2,2.7,8.5,2.9,34.2l0.2,23.9h-4.8h-4.9V98.2c0-11.2-0.2-22-0.5-24.5c-2.3-20.5-16.3-36.9-36.4-42.5c-4-1.1-5.1-1.2-12.5-1.2s-8.5,0.1-12.5,1.2c-18.4,5.1-31.1,18.5-35.8,37.7C79,71.3,78.9,76,78.7,95l-0.2,23.2h-4.8h-4.8L69,94.3C69.2,73.8,69.3,70,70,67c2.8-12,7.8-21.3,16-29.6c6.3-6.4,12.2-10.3,20.2-13.5C116.8,19.6,128.3,18.6,139.5,20.9z M138.8,41c13,3.8,23,13.8,27.1,27.1c1,3.3,1,4.1,1.2,26.8l0.1,23.4H128H88.7V95.9c0-22.1,0-22.3,1.1-26.7c3.9-15.3,16.1-26.5,32-29.4C125.9,39.1,134.2,39.6,138.8,41z M194.4,128.7c0.7,0.4,1.5,1.3,1.8,1.9c0.3,0.8,0.4,15.9,0.4,48l-0.1,46.8l-1.1,2.3c-1.5,3-4.2,5.6-7.4,7.2l-2.6,1.2h-57.4H70.5l-2.6-1.2c-3.5-1.6-6.5-4.8-7.7-8c-1-2.5-1-3.2-1-49c0-49.9,0-47.9,2.4-49.3c0.9-0.5,13.1-0.6,66.3-0.6C188.3,127.9,193.1,128,194.4,128.7z"/><path fill="#000000" d="M121.8,148.6c-3.5,1.2-5.3,2.3-8.2,5.4c-7,7.4-7.2,18.6-0.5,26.3l1.4,1.6l-3.4,10l-3.3,10.1l0.8,1.7c1.5,3,1.9,3.1,19.2,3.1c17.3,0,17.7-0.1,19.2-3.1l0.8-1.7l-3.3-10l-3.4-10.1l1.7-1.9c6.8-8,6-19.7-1.8-27c-3.9-3.6-6.8-4.8-12.5-5C125.5,147.8,123.8,147.9,121.8,148.6z M131.5,158.2c6.9,2.9,8.3,12.4,2.4,16.7c-2.5,1.8-3.3,3-3.3,4.8c0,0.9,1.2,5.1,2.5,9.2c1.4,4.2,2.5,7.7,2.5,7.7c0,0.1-3.5,0.1-7.8,0.1c-4.3,0-7.8,0-7.8-0.1c0,0,1.2-3.6,2.5-7.7c2.5-7.6,3-10.2,1.9-11.5c-0.3-0.4-1.4-1.4-2.5-2.2c-4.8-3.7-5.2-10.7-0.7-14.9C124,157.5,128.1,156.7,131.5,158.2z"/></g></g></g>
</svg>